<svg width="20" height="20" viewBox="0 0 20 20" fill="none" xmlns="http://www.w3.org/2000/svg">
<path d="M11.028 0.000986255C11.7578 -0.00181397 12.4875 0.00552015 13.217 0.0229863L13.411 0.0299863C13.635 0.0379863 13.856 0.0479863 14.123 0.0599863C15.187 0.109986 15.913 0.277986 16.55 0.524986C17.21 0.778986 17.766 1.12299 18.322 1.67899C18.8304 2.17859 19.2239 2.78293 19.475 3.44999C19.722 4.08699 19.89 4.81399 19.94 5.87799C19.952 6.14399 19.962 6.36599 19.97 6.58999L19.976 6.78399C19.9938 7.51318 20.0015 8.24258 19.999 8.97199L20 9.71799V11.028C20.0025 11.7577 19.9948 12.4875 19.977 13.217L19.971 13.411C19.963 13.635 19.953 13.856 19.941 14.123C19.891 15.187 19.721 15.913 19.475 16.55C19.2247 17.2177 18.8311 17.8226 18.322 18.322C17.822 18.8303 17.2173 19.2237 16.55 19.475C15.913 19.722 15.187 19.89 14.123 19.94C13.856 19.952 13.635 19.962 13.411 19.97L13.217 19.976C12.4875 19.9938 11.7578 20.0014 11.028 19.999L10.282 20H8.97303C8.24329 20.0025 7.51355 19.9948 6.78403 19.977L6.59003 19.971C6.35264 19.9624 6.1153 19.9524 5.87803 19.941C4.81403 19.891 4.08803 19.721 3.45003 19.475C2.78271 19.2243 2.17827 18.8308 1.67903 18.322C1.17007 17.8223 0.776252 17.2175 0.525028 16.55C0.278028 15.913 0.110028 15.187 0.0600276 14.123C0.0488905 13.8857 0.0388905 13.6484 0.0300277 13.411L0.0250278 13.217C0.00659136 12.4875 -0.00174286 11.7577 2.76843e-05 11.028V8.97199C-0.00276328 8.24259 0.00457083 7.51318 0.0220278 6.78399L0.0290277 6.58999C0.0370277 6.36599 0.0470277 6.14399 0.0590277 5.87799C0.109028 4.81299 0.277028 4.08799 0.524028 3.44999C0.7754 2.78261 1.16999 2.17843 1.68003 1.67999C2.17892 1.17074 2.78299 0.776559 3.45003 0.524986C4.08803 0.277986 4.81303 0.109986 5.87803 0.0599863L6.59003 0.0299863L6.78403 0.0249864C7.51321 0.00655924 8.24261 -0.00177499 8.97203 -1.36727e-05L11.028 0.000986255ZM10 5.00099C9.33753 4.99162 8.67978 5.11401 8.065 5.36105C7.45022 5.6081 6.89067 5.97486 6.41887 6.44004C5.94707 6.90522 5.57243 7.45952 5.31671 8.07075C5.061 8.68197 4.92932 9.33793 4.92932 10.0005C4.92932 10.663 5.061 11.319 5.31671 11.9302C5.57243 12.5414 5.94707 13.0958 6.41887 13.5609C6.89067 14.0261 7.45022 14.3929 8.065 14.6399C8.67978 14.887 9.33753 15.0094 10 15C11.3261 15 12.5979 14.4732 13.5356 13.5355C14.4732 12.5978 15 11.3261 15 9.99999C15 8.6739 14.4732 7.40213 13.5356 6.46445C12.5979 5.52677 11.3261 5.00099 10 5.00099ZM10 7.00099C10.3985 6.99364 10.7945 7.06578 11.1648 7.21319C11.5351 7.3606 11.8724 7.58033 12.1568 7.85953C12.4412 8.13873 12.6672 8.47182 12.8215 8.83933C12.9757 9.20684 13.0552 9.6014 13.0553 9.99998C13.0554 10.3986 12.976 10.7931 12.8219 11.1607C12.6677 11.5283 12.4419 11.8614 12.1575 12.1407C11.8732 12.42 11.536 12.6399 11.1658 12.7874C10.7955 12.9349 10.3995 13.0072 10.001 13C9.20538 13 8.44232 12.6839 7.87971 12.1213C7.3171 11.5587 7.00103 10.7956 7.00103 9.99999C7.00103 9.20434 7.3171 8.44127 7.87971 7.87867C8.44232 7.31606 9.20538 6.99999 10.001 6.99999L10 7.00099ZM15.25 3.50099C14.9274 3.5139 14.6223 3.65114 14.3986 3.88396C14.1749 4.11678 14.05 4.42712 14.05 4.74999C14.05 5.07285 14.1749 5.38319 14.3986 5.61601C14.6223 5.84884 14.9274 5.98607 15.25 5.99899C15.5815 5.99899 15.8995 5.86729 16.1339 5.63287C16.3683 5.39845 16.5 5.08051 16.5 4.74899C16.5 4.41747 16.3683 4.09952 16.1339 3.8651C15.8995 3.63068 15.5815 3.49899 15.25 3.49899V3.50099Z" fill="white"/>
</svg>
