<svg width="98" height="24" viewBox="0 0 98 24" fill="none" xmlns="http://www.w3.org/2000/svg">
<path d="M2.646 8.058V10.914H6.006V12.216H2.646V15.198H6.426V16.5H1.05V6.756H6.426V8.058H2.646ZM16.3858 16.5H14.7898L9.9878 9.234V16.5H8.3918V6.756H9.9878L14.7898 14.008V6.756H16.3858V16.5Z" fill="#020202"/>
<g clip-path="url(#clip0_1_482)">
<path fill-rule="evenodd" clip-rule="evenodd" d="M30.707 15.707C30.5194 15.8945 30.2651 15.9998 30 15.9998C29.7348 15.9998 29.4805 15.8945 29.293 15.707L23.636 10.05C23.5405 9.95775 23.4643 9.84741 23.4119 9.7254C23.3595 9.6034 23.3319 9.47218 23.3307 9.3394C23.3296 9.20662 23.3549 9.07494 23.4052 8.95205C23.4554 8.82915 23.5297 8.7175 23.6236 8.6236C23.7175 8.52971 23.8291 8.45546 23.952 8.40518C24.0749 8.3549 24.2066 8.3296 24.3394 8.33075C24.4722 8.3319 24.6034 8.35949 24.7254 8.4119C24.8474 8.46431 24.9577 8.54049 25.05 8.636L30 13.586L34.95 8.636C35.1386 8.45384 35.3912 8.35305 35.6534 8.35533C35.9156 8.3576 36.1664 8.46277 36.3518 8.64818C36.5372 8.83359 36.6424 9.0844 36.6447 9.3466C36.6469 9.6088 36.5461 9.8614 36.364 10.05L30.707 15.707Z" fill="#020202"/>
</g>
<path d="M66 7H65.25C65.25 8.79493 63.7949 10.25 62 10.25V11V11.75C64.6234 11.75 66.75 9.62335 66.75 7H66ZM62 11V10.25C60.2051 10.25 58.75 8.79493 58.75 7H58H57.25C57.25 9.62335 59.3766 11.75 62 11.75V11ZM58 7H58.75C58.75 5.20507 60.2051 3.75 62 3.75V3V2.25C59.3766 2.25 57.25 4.37665 57.25 7H58ZM62 3V3.75C63.7949 3.75 65.25 5.20507 65.25 7H66H66.75C66.75 4.37665 64.6234 2.25 62 2.25V3ZM69 17.5H68.25C68.25 18.0294 67.8014 18.7105 66.6143 19.3041C65.4722 19.8751 63.8418 20.25 62 20.25V21V21.75C64.0242 21.75 65.8938 21.3414 67.2852 20.6457C68.6316 19.9725 69.75 18.9036 69.75 17.5H69ZM62 21V20.25C60.1582 20.25 58.5278 19.8751 57.3857 19.3041C56.1986 18.7105 55.75 18.0294 55.75 17.5H55H54.25C54.25 18.9036 55.3684 19.9725 56.7148 20.6457C58.1062 21.3414 59.9758 21.75 62 21.75V21ZM55 17.5H55.75C55.75 16.9706 56.1986 16.2895 57.3857 15.6959C58.5278 15.1249 60.1582 14.75 62 14.75V14V13.25C59.9758 13.25 58.1062 13.6586 56.7148 14.3543C55.3684 15.0275 54.25 16.0964 54.25 17.5H55ZM62 14V14.75C63.8418 14.75 65.4722 15.1249 66.6143 15.6959C67.8014 16.2895 68.25 16.9706 68.25 17.5H69H69.75C69.75 16.0964 68.6316 15.0275 67.2852 14.3543C65.8938 13.6586 64.0242 13.25 62 13.25V14Z" fill="#020202"/>
<g clip-path="url(#clip1_1_482)">
<path fill-rule="evenodd" clip-rule="evenodd" d="M86.707 15.707C86.5194 15.8945 86.2651 15.9998 86 15.9998C85.7348 15.9998 85.4805 15.8945 85.293 15.707L79.636 10.05C79.5405 9.95775 79.4643 9.84741 79.4119 9.7254C79.3595 9.6034 79.3319 9.47218 79.3307 9.3394C79.3296 9.20662 79.3549 9.07494 79.4052 8.95205C79.4554 8.82915 79.5297 8.7175 79.6236 8.6236C79.7175 8.52971 79.8291 8.45546 79.952 8.40518C80.0749 8.3549 80.2066 8.3296 80.3394 8.33075C80.4722 8.3319 80.6034 8.35949 80.7254 8.4119C80.8474 8.46431 80.9577 8.54049 81.05 8.636L86 13.586L90.95 8.636C91.1386 8.45384 91.3912 8.35305 91.6534 8.35533C91.9156 8.3576 92.1664 8.46277 92.3518 8.64818C92.5372 8.83359 92.6424 9.0844 92.6447 9.3466C92.6469 9.6088 92.5461 9.8614 92.364 10.05L86.707 15.707Z" fill="#020202"/>
</g>
<defs>
<clipPath id="clip0_1_482">
<rect width="24" height="24" fill="white" transform="translate(18)"/>
</clipPath>
<clipPath id="clip1_1_482">
<rect width="24" height="24" fill="white" transform="translate(74)"/>
</clipPath>
</defs>
</svg>
